<svg version="1.1" viewBox="0 0 96 96" xmlns="http://www.w3.org/2000/svg" xmlns:xlink="http://www.w3.org/1999/xlink" id="Icons_Puzzle" overflow="hidden"><path d=" M 59.7 66.7 C 53.1 66.9 50.7 58.4 55.4 53.5 L 56.1 52.8 C 61 48.1 69.7 50.3 69.5 56.9 C 69.4 60.7 73.9 65.3 76.6 62.6 L 88 51.2 L 71 34.2 C 68.3 31.5 72.9 27 76.7 27.1 C 83.3 27.3 85.5 18.6 80.8 13.7 L 80.1 13 C 75.2 8.3 66.7 10.7 66.9 17.3 C 67 21.1 62.5 25.7 59.8 23 L 42.8 6 L 31.3 17.4 C 28.6 20.1 33.2 24.6 37 24.5 C 43.6 24.3 46 32.8 41.3 37.7 L 40.6 38.4 C 35.7 43.1 27 40.9 27.2 34.3 C 27.3 30.5 22.8 25.9 20.1 28.6 L 8 40.8 L 25 57.8 C 27.7 60.5 23.1 65 19.3 64.9 C 12.7 64.7 10.5 73.4 15.2 78.3 L 15.9 79 C 20.8 83.7 29.3 81.3 29.1 74.7 C 29 70.9 33.5 66.3 36.2 69 L 53.2 86 L 65.4 73.8 C 68.1 71.1 63.6 66.6 59.7 66.7 Z" stroke="none" stroke-width="1" stroke-linecap="butt" fill="#000000" fill-opacity="0.8"/></svg>